<svg width="208" height="23" viewBox="0 0 208 23" fill="none" xmlns="http://www.w3.org/2000/svg">
<path d="M7.33 22.27C6.19 22.27 5.05 22.23 3.91 22.15C2.79 22.09 1.62 21.93 0.4 21.67V1.51C1.36 1.33 2.41 1.2 3.55 1.12C4.69 1.02 5.75 0.969999 6.73 0.969999C8.05 0.969999 9.26 1.07 10.36 1.27C11.48 1.45 12.44 1.77 13.24 2.23C14.04 2.69 14.66 3.3 15.1 4.06C15.56 4.8 15.79 5.72 15.79 6.82C15.79 8.48 14.99 9.79 13.39 10.75C14.71 11.25 15.61 11.93 16.09 12.79C16.57 13.65 16.81 14.62 16.81 15.7C16.81 17.88 16.01 19.52 14.41 20.62C12.83 21.72 10.47 22.27 7.33 22.27ZM4.96 12.94V18.31C5.3 18.35 5.67 18.38 6.07 18.4C6.47 18.42 6.91 18.43 7.39 18.43C8.79 18.43 9.92 18.23 10.78 17.83C11.64 17.43 12.07 16.69 12.07 15.61C12.07 14.65 11.71 13.97 10.99 13.57C10.27 13.15 9.24 12.94 7.9 12.94H4.96ZM4.96 9.37H7.24C8.68 9.37 9.71 9.19 10.33 8.83C10.95 8.45 11.26 7.85 11.26 7.03C11.26 6.19 10.94 5.6 10.3 5.26C9.66 4.92 8.72 4.75 7.48 4.75C7.08 4.75 6.65 4.76 6.19 4.78C5.73 4.78 5.32 4.8 4.96 4.84V9.37ZM27.4863 11.59C27.4863 12.61 27.6063 13.53 27.8463 14.35C28.1063 15.17 28.4663 15.88 28.9263 16.48C29.4063 17.06 29.9863 17.51 30.6663 17.83C31.3463 18.15 32.1263 18.31 33.0063 18.31C33.8663 18.31 34.6363 18.15 35.3163 17.83C36.0163 17.51 36.5963 17.06 37.0563 16.48C37.5363 15.88 37.8963 15.17 38.1363 14.35C38.3963 13.53 38.5263 12.61 38.5263 11.59C38.5263 10.57 38.3963 9.65 38.1363 8.83C37.8963 7.99 37.5363 7.28 37.0563 6.7C36.5963 6.1 36.0163 5.64 35.3163 5.32C34.6363 5 33.8663 4.84 33.0063 4.84C32.1263 4.84 31.3463 5.01 30.6663 5.35C29.9863 5.67 29.4063 6.13 28.9263 6.73C28.4663 7.31 28.1063 8.02 27.8463 8.86C27.6063 9.68 27.4863 10.59 27.4863 11.59ZM43.3563 11.59C43.3563 13.37 43.0863 14.94 42.5463 16.3C42.0263 17.64 41.3063 18.77 40.3863 19.69C39.4663 20.59 38.3663 21.27 37.0863 21.73C35.8263 22.19 34.4663 22.42 33.0063 22.42C31.5863 22.42 30.2463 22.19 28.9863 21.73C27.7263 21.27 26.6263 20.59 25.6863 19.69C24.7463 18.77 24.0063 17.64 23.4663 16.3C22.9263 14.94 22.6563 13.37 22.6563 11.59C22.6563 9.81 22.9363 8.25 23.4963 6.91C24.0563 5.55 24.8063 4.41 25.7463 3.49C26.7063 2.57 27.8063 1.88 29.0463 1.42C30.3063 0.959998 31.6263 0.729998 33.0063 0.729998C34.4263 0.729998 35.7663 0.959998 37.0263 1.42C38.2863 1.88 39.3863 2.57 40.3263 3.49C41.2663 4.41 42.0063 5.55 42.5463 6.91C43.0863 8.25 43.3563 9.81 43.3563 11.59ZM54.1874 11.59C54.1874 12.61 54.3074 13.53 54.5474 14.35C54.8074 15.17 55.1674 15.88 55.6274 16.48C56.1074 17.06 56.6874 17.51 57.3674 17.83C58.0474 18.15 58.8274 18.31 59.7074 18.31C60.5674 18.31 61.3374 18.15 62.0174 17.83C62.7174 17.51 63.2974 17.06 63.7574 16.48C64.2374 15.88 64.5974 15.17 64.8374 14.35C65.0974 13.53 65.2274 12.61 65.2274 11.59C65.2274 10.57 65.0974 9.65 64.8374 8.83C64.5974 7.99 64.2374 7.28 63.7574 6.7C63.2974 6.1 62.7174 5.64 62.0174 5.32C61.3374 5 60.5674 4.84 59.7074 4.84C58.8274 4.84 58.0474 5.01 57.3674 5.35C56.6874 5.67 56.1074 6.13 55.6274 6.73C55.1674 7.31 54.8074 8.02 54.5474 8.86C54.3074 9.68 54.1874 10.59 54.1874 11.59ZM70.0574 11.59C70.0574 13.37 69.7874 14.94 69.2474 16.3C68.7274 17.64 68.0074 18.77 67.0874 19.69C66.1674 20.59 65.0674 21.27 63.7874 21.73C62.5274 22.19 61.1674 22.42 59.7074 22.42C58.2874 22.42 56.9474 22.19 55.6874 21.73C54.4274 21.27 53.3274 20.59 52.3874 19.69C51.4474 18.77 50.7074 17.64 50.1674 16.3C49.6274 14.94 49.3574 13.37 49.3574 11.59C49.3574 9.81 49.6374 8.25 50.1974 6.91C50.7574 5.55 51.5074 4.41 52.4474 3.49C53.4074 2.57 54.5074 1.88 55.7474 1.42C57.0074 0.959998 58.3274 0.729998 59.7074 0.729998C61.1274 0.729998 62.4674 0.959998 63.7274 1.42C64.9874 1.88 66.0874 2.57 67.0274 3.49C67.9674 4.41 68.7074 5.55 69.2474 6.91C69.7874 8.25 70.0574 9.81 70.0574 11.59ZM82.6286 18.43C83.2886 18.43 83.8286 18.38 84.2486 18.28C84.6886 18.16 85.0386 18.01 85.2986 17.83C85.5586 17.63 85.7386 17.4 85.8386 17.14C85.9386 16.88 85.9886 16.59 85.9886 16.27C85.9886 15.59 85.6686 15.03 85.0286 14.59C84.3886 14.13 83.2886 13.64 81.7286 13.12C81.0486 12.88 80.3686 12.61 79.6886 12.31C79.0086 11.99 78.3986 11.6 77.8586 11.14C77.3186 10.66 76.8786 10.09 76.5386 9.43C76.1986 8.75 76.0286 7.93 76.0286 6.97C76.0286 6.01 76.2086 5.15 76.5686 4.39C76.9286 3.61 77.4386 2.95 78.0986 2.41C78.7586 1.87 79.5586 1.46 80.4986 1.18C81.4386 0.879999 82.4986 0.729998 83.6786 0.729998C85.0786 0.729998 86.2886 0.879999 87.3086 1.18C88.3286 1.48 89.1686 1.81 89.8286 2.17L88.4786 5.86C87.8986 5.56 87.2486 5.3 86.5286 5.08C85.8286 4.84 84.9786 4.72 83.9786 4.72C82.8586 4.72 82.0486 4.88 81.5486 5.2C81.0686 5.5 80.8286 5.97 80.8286 6.61C80.8286 6.99 80.9186 7.31 81.0986 7.57C81.2786 7.83 81.5286 8.07 81.8486 8.29C82.1886 8.49 82.5686 8.68 82.9886 8.86C83.4286 9.02 83.9086 9.19 84.4286 9.37C85.5086 9.77 86.4486 10.17 87.2486 10.57C88.0486 10.95 88.7086 11.4 89.2286 11.92C89.7686 12.44 90.1686 13.05 90.4286 13.75C90.6886 14.45 90.8186 15.3 90.8186 16.3C90.8186 18.24 90.1386 19.75 88.7786 20.83C87.4186 21.89 85.3686 22.42 82.6286 22.42C81.7086 22.42 80.8786 22.36 80.1386 22.24C79.3986 22.14 78.7386 22.01 78.1586 21.85C77.5986 21.69 77.1086 21.52 76.6886 21.34C76.2886 21.16 75.9486 20.99 75.6686 20.83L76.9886 17.11C77.6086 17.45 78.3686 17.76 79.2686 18.04C80.1886 18.3 81.3086 18.43 82.6286 18.43ZM112.254 1.21V5.2H105.984V22H101.304V5.2H95.0336V1.21H112.254ZM143.888 1.21V5.2H137.618V22H132.938V5.2H126.668V1.21H143.888ZM149.896 1.21H154.576V22H149.896V1.21ZM167.908 1.21C168.268 1.87 168.678 2.69 169.138 3.67C169.618 4.63 170.108 5.68 170.608 6.82C171.128 7.94 171.638 9.09 172.138 10.27C172.638 11.45 173.108 12.56 173.548 13.6C173.988 12.56 174.458 11.45 174.958 10.27C175.458 9.09 175.958 7.94 176.458 6.82C176.978 5.68 177.468 4.63 177.928 3.67C178.408 2.69 178.828 1.87 179.188 1.21H183.448C183.648 2.59 183.828 4.14 183.988 5.86C184.168 7.56 184.318 9.34 184.438 11.2C184.578 13.04 184.698 14.89 184.798 16.75C184.918 18.61 185.018 20.36 185.098 22H180.538C180.478 19.98 180.398 17.78 180.298 15.4C180.198 13.02 180.048 10.62 179.848 8.2C179.488 9.04 179.088 9.97 178.648 10.99C178.208 12.01 177.768 13.03 177.328 14.05C176.908 15.07 176.498 16.05 176.098 16.99C175.698 17.91 175.358 18.7 175.078 19.36H171.808C171.528 18.7 171.188 17.91 170.788 16.99C170.388 16.05 169.968 15.07 169.528 14.05C169.108 13.03 168.678 12.01 168.238 10.99C167.798 9.97 167.398 9.04 167.038 8.2C166.838 10.62 166.688 13.02 166.588 15.4C166.488 17.78 166.408 19.98 166.348 22H161.788C161.868 20.36 161.958 18.61 162.058 16.75C162.178 14.89 162.298 13.04 162.418 11.2C162.558 9.34 162.708 7.56 162.868 5.86C163.048 4.14 163.238 2.59 163.438 1.21H167.908ZM192.312 22V1.21H206.352V5.14H196.992V9.22H205.302V13.06H196.992V18.07H207.042V22H192.312Z" fill="black"/>
</svg>
